# xmcd
#
# Track frame offsets:
# 150
# 15607
# 30455
# 54520
# 78875
# 94097
# 115910
# 134772
# 150807
# 168785
# 187405
# 205357
#
# Disc length: 3007 seconds
#
# Revision: 1
# Processed by: cddbd v1.5.2PL0 Copyright (c) Steve Scherf et al.
# Submitted via: Easy CD Ripper 2.3.10
#
DISCID=950bbd0c
DTITLE=Barry White and The Love Unlimited Orchestra - Back To Back: Their Greatest Hits
DYEAR=1970
DGENRE=Blues
TTITLE0=Can't Get Enough Of Your Love, Babe - Barry White and The Love Unlimited Orchestra
TTITLE1=Oh What A Night For Dancing - Barry White and The Love Unlimited Orchestra
TTITLE2=I've Got So Much To Give - Barry White and The Love Unlimited Orchestra
TTITLE3=Standing In The Shadows Of Love - Barry White and The Love Unlimited Orchestra
TTITLE4=Don't Make Me Wait Too Long - Barry White and The Love Unlimited Orchestra
TTITLE5=Just The Way You Are - Barry White and The Love Unlimited Orchestra
TTITLE6=Love's Theme - Barry White and The Love Unlimited Orchestra
TTITLE7=Midnight Groove - Barry White and The Love Unlimited Orchestra
TTITLE8=Rhapsody In White - Barry White and The Love Unlimited Orchestra
TTITLE9=Forever In Love - Barry White and The Love Unlimited Orchestra
TTITLE10=Power Of Love - Barry White and The Love Unlimited Orchestra
TTITLE11=Barry's Theme - Barry White and The Love Unlimited Orchestra
EXTD=
EXTT0=
EXTT1=
EXTT2=
EXTT3=
EXTT4=
EXTT5=
EXTT6=
EXTT7=
EXTT8=
EXTT9=
EXTT10=
EXTT11=
PLAYORDER=
